HIERARCHY
ROOT Hips
{
	OFFSET 0.000000 88.474243 0.000000
	CHANNELS 6 Xposition Yposition Zposition Zrotation Yrotation Xrotation 
	JOINT Hips_Spine
	{
		OFFSET 0.000000 0.000000 0.000000
		CHANNELS 3 Zrotation Yrotation Xrotation
		JOINT Spine
		{
			OFFSET 0.005100 8.711998 -0.691000
			CHANNELS 3 Zrotation Yrotation Xrotation
			JOINT Spine1
			{
				OFFSET -0.009200 8.660301 -1.275000
				CHANNELS 3 Zrotation Yrotation Xrotation
				JOINT Spine2
				{
					OFFSET 0.006300 9.852501 -1.857000
					CHANNELS 3 Zrotation Yrotation Xrotation
					JOINT Spine2_Neck
					{
						OFFSET 0.000000 0.000000 0.000000
						CHANNELS 3 Zrotation Yrotation Xrotation
						JOINT Neck
						{
							OFFSET 0.016300 11.420799 -0.263300
							CHANNELS 3 Zrotation Yrotation Xrotation
							End Site #name: Head
							{
								OFFSET -0.019200 9.262405 2.362500
							}
						}
					}
					JOINT Spine2_LeftShoulder
					{
						OFFSET 0.000000 0.000000 0.000000
						CHANNELS 3 Zrotation Yrotation Xrotation
						JOINT LeftShoulder
						{
							OFFSET 5.616900 6.732201 -0.345700
							CHANNELS 3 Zrotation Yrotation Xrotation
							JOINT LeftArm
							{
								OFFSET 10.664888 -0.183372 -2.440700
								CHANNELS 3 Zrotation Yrotation Xrotation
								JOINT LeftForeArm
								{
									OFFSET 27.459126 0.000000 0.000000
									CHANNELS 3 Zrotation Yrotation Xrotation
									End Site #name: LeftHand
									{
										OFFSET 21.306858 0.000000 0.000000
									}
								}
							}
						}
					}
					JOINT Spine2_RightShoulder
					{
						OFFSET 0.000000 0.000000 0.000000
						CHANNELS 3 Zrotation Yrotation Xrotation
						JOINT RightShoulder
						{
							OFFSET -5.580300 6.737503 -0.344400
							CHANNELS 3 Zrotation Yrotation Xrotation
							JOINT RightArm
							{
								OFFSET -10.679335 -0.188484 -2.383900
								CHANNELS 3 Zrotation Yrotation Xrotation
								JOINT RightForeArm
								{
									OFFSET -27.503529 0.000000 0.000000
									CHANNELS 3 Zrotation Yrotation Xrotation
									End Site #name: RightHand
									{
										OFFSET -21.306808 0.000000 0.000000
									}
								}
							}
						}
					}
				}
			}
		}
	}
	JOINT Hips_LeftUpLeg
	{
		OFFSET 0.000000 0.000000 0.000000
		CHANNELS 3 Zrotation Yrotation Xrotation
		JOINT LeftUpLeg
		{
			OFFSET 6.857700 -6.739601 0.312100
			CHANNELS 3 Zrotation Yrotation Xrotation
			JOINT LeftLeg
			{
				OFFSET -0.367590 -34.731552 -4.572400
				CHANNELS 3 Zrotation Yrotation Xrotation
				End Site #name: LeftFoot
				{
					OFFSET 0.367590 -34.656704 -6.067400
				}
			}
		}
	}
	JOINT Hips_RightUpLeg
	{
		OFFSET 0.000000 0.000000 0.000000
		CHANNELS 3 Zrotation Yrotation Xrotation
		JOINT RightUpLeg
		{
			OFFSET -6.876100 -6.733299 0.301000
			CHANNELS 3 Zrotation Yrotation Xrotation
			JOINT RightLeg
			{
				OFFSET 0.347353 -34.795158 -4.515900
				CHANNELS 3 Zrotation Yrotation Xrotation
				End Site #name: RightFoot
				{
					OFFSET -0.347353 -34.589367 -6.070300
				}
			}
		}
	}
}
MOTION
Frames: 9
Frame Time: 0.041667
0.031901 -0.024671 -0.072355 -179.438180 51.548055 -175.216829 -0.000000 -0.000000 0.000000 -3.774447 3.582679 -1.162314 1.000716 -0.361632 0.461621 0.000000 0.000000 0.000000 0.450093 -0.945607 -2.909070 -1.560514 -8.298532 -0.869836 0.603043 -0.084990 -1.199911 -3.572286 -6.817287 1.463582 -77.004984 -9.004618 10.786227 0.720745 -17.653549 3.489013 0.326307 -0.558431 -1.476719 19.250309 13.440602 4.510375 50.894458 13.056511 -11.041062 -7.471321 71.591814 -1.020307 0.000000 -0.000000 0.000000 -8.175309 18.232688 -15.769764 -6.812270 -35.389507 0.496149 -0.000000 -0.000000 -0.000000 -8.742045 -33.155693 -8.166372 -15.815421 -9.977863 15.699480 
-0.232215 -0.207177 -0.120367 178.294085 59.942930 -176.064478 -0.000000 -0.000000 0.000000 -5.553284 2.548127 1.323800 1.228418 -0.646497 -0.581430 0.000000 0.000000 0.000000 1.288286 -0.655777 -2.947305 -0.331468 -16.275658 -0.120729 0.725274 -0.318996 -1.922171 -2.523970 -8.113891 1.677270 -82.327118 -16.329943 6.920862 -1.148753 -14.915639 1.595703 1.070766 -0.882925 -0.544434 25.274363 16.449067 5.128863 49.767613 12.685481 -11.059066 -3.255471 56.234221 2.741136 -0.000000 -0.000000 -0.000000 -6.387471 19.162354 -13.619023 -3.681193 -33.055735 -4.981147 -0.000000 -0.000000 -0.000000 -9.342402 -39.556219 -6.597339 -13.883318 -6.152986 14.982564 
-0.261791 -0.286807 -0.138567 177.416814 49.962886 -176.862851 -0.000000 -0.000000 0.000000 -6.279823 -0.451906 1.771282 1.460903 -0.675537 -1.258517 0.000000 0.000000 0.000000 1.719163 -0.847012 -3.121800 -0.778517 -26.115355 -0.047998 0.772574 -0.302996 -2.447342 -1.433402 -6.922710 1.030881 -83.629258 -17.601009 1.553932 -0.858066 -9.158859 1.802206 1.415234 -1.016291 -1.907097 26.948770 18.429089 6.095299 50.444299 12.948408 -5.691028 -0.979818 52.287060 6.579309 -0.000000 0.000000 -0.000000 -5.128858 20.438026 -12.238228 -2.779699 -32.287745 -6.761678 -0.000000 -0.000000 -0.000000 -9.896594 -45.137939 -4.198962 -13.807585 -5.965639 15.716786 
-0.128267 -0.337182 -0.152636 177.937228 38.432789 -177.191801 -0.000000 -0.000000 0.000000 -6.046416 -1.411912 2.540046 1.075356 -0.979639 -1.639529 0.000000 0.000000 0.000000 1.616512 -1.119076 -2.950030 -1.472373 -31.143827 0.127113 0.601373 -0.492558 -2.760619 -1.199021 -5.862657 0.673117 -84.416857 -18.950458 -0.306396 -0.593556 -6.523047 1.731385 1.140761 -1.437544 -1.994619 25.767043 18.061851 6.153865 50.749879 13.787982 -3.067184 2.064019 52.778153 9.160962 -0.000000 0.000000 -0.000000 -4.368094 21.236268 -11.085725 -2.278770 -33.237353 -7.523262 -0.000000 -0.000000 -0.000000 -10.781618 -52.456116 -2.842557 -14.180781 -5.077254 16.895883 
0.028137 -0.359721 -0.210880 177.693455 27.970896 -177.685301 -0.000000 -0.000000 0.000000 -5.401792 -1.671133 2.847341 0.577820 -1.230873 -1.746673 0.000000 0.000000 0.000000 1.360624 -1.383351 -2.438128 -1.474327 -32.918871 -0.010089 0.271049 -0.736571 -2.722398 -1.327586 -5.003169 0.497640 -84.963295 -19.843810 0.049328 0.059442 -5.331594 2.365318 0.706738 -1.693934 -1.629037 23.380460 16.887773 5.756250 51.241219 14.793586 -0.503011 3.952628 53.508260 9.853995 -0.000000 0.000000 -0.000000 -4.000344 21.931401 -10.481524 -2.004725 -34.004315 -7.927121 -0.000000 -0.000000 -0.000000 -11.211381 -57.958802 -2.358382 -14.842400 -4.252676 18.047623 
0.194792 -0.357360 -0.303355 176.869592 19.144479 -178.098829 -0.000000 -0.000000 0.000000 -4.665328 -1.483081 2.990181 0.149757 -1.445812 -1.474232 0.000000 0.000000 0.000000 1.073663 -1.514205 -1.636293 -0.964985 -32.454418 -0.771256 -0.021378 -0.911184 -2.280771 -1.518489 -4.289743 0.408687 -85.453251 -19.894364 1.109688 1.092876 -5.016652 3.333169 0.316168 -1.827768 -0.877621 21.260987 15.709764 5.413729 52.020229 14.519732 1.942004 3.584702 54.114314 8.925417 -0.000000 0.000000 -0.000000 -4.139403 22.004581 -10.522515 -1.877038 -34.617908 -8.345732 -0.000000 -0.000000 -0.000000 -11.100534 -61.651031 -2.600657 -15.574662 -3.933296 18.893088 
0.365621 -0.334592 -0.417017 175.977881 12.963608 -178.299279 -0.000000 -0.000000 0.000000 -4.107957 -0.460827 3.071606 -0.117239 -1.505838 -0.827775 0.000000 0.000000 0.000000 0.855495 -1.542208 -0.719349 -0.266951 -31.149031 -1.757312 -0.171619 -1.008274 -1.724884 -1.689986 -3.680571 0.362288 -85.464934 -19.937432 2.126327 1.949631 -5.536616 4.134231 0.087868 -1.878427 -0.544782 19.603143 14.754448 5.160468 52.821995 12.597772 3.986278 2.674786 53.159494 7.946672 -0.000000 0.000000 -0.000000 -4.433694 21.623023 -10.793726 -1.829383 -35.142987 -8.842996 -0.000000 -0.000000 -0.000000 -10.903988 -63.295573 -2.929455 -16.203117 -4.204474 19.180281 
0.535074 -0.301047 -0.539929 175.272965 8.454967 -178.349391 -0.000000 -0.000000 0.000000 -3.958170 0.748726 3.181981 -0.211078 -1.458932 -0.027046 0.000000 0.000000 0.000000 0.678845 -1.515391 0.211427 0.287996 -29.766684 -2.484279 -0.252674 -1.017186 -1.240334 -1.724078 -3.305535 0.355984 -85.084562 -20.241261 2.839258 2.522248 -6.639708 4.488418 -0.043153 -1.897524 -0.268441 18.342657 14.200023 4.805608 53.481800 10.670617 5.670527 1.621788 50.774630 7.162039 -0.000000 0.000000 -0.000000 -4.674903 21.116849 -11.046450 -1.784632 -35.495223 -9.286986 -0.000000 -0.000000 -0.000000 -10.687654 -63.948683 -3.364712 -16.803251 -4.857484 19.085266 
0.701207 -0.260726 -0.661589 174.751845 4.283852 -178.365061 -0.000000 -0.000000 0.000000 -4.057413 1.721587 3.403033 -0.238333 -1.374230 0.784553 0.000000 0.000000 0.000000 0.560530 -1.462189 0.950070 0.444075 -28.770761 -2.763228 -0.310949 -1.004787 -0.832285 -1.596194 -3.173984 0.403126 -84.528831 -20.627883 3.555878 2.869907 -8.212938 4.349602 -0.135130 -1.912390 -0.000351 17.507899 13.973732 4.384505 54.017555 9.544586 6.773142 1.931146 47.182550 7.354706 -0.000000 0.000000 -0.000000 -4.769991 20.652070 -10.970199 -1.709454 -35.806870 -9.698547 -0.000000 -0.000000 -0.000000 -10.637339 -64.017192 -3.619544 -17.278623 -5.858683 18.656279 
